<svg width="180" height="39" viewBox="0 0 180 39" fill="none" xmlns="http://www.w3.org/2000/svg">
<path d="M157 0C157.553 0 158 0.446875 158 1V4H160C160.553 4 161 4.44688 161 5C161 5.55312 160.553 6 160 6V8C160 10.9719 157.837 13.441 155 13.916V15.125H155.077V30.4219C155.077 34.4217 156.172 36.1 157.077 36.4219C157.577 36.4219 161.077 37.4217 162.077 35.4219C163.69 32.197 163.41 31.4079 163.077 27.4219C162.5 20.5001 162 20.5 163.5 18.5C165.304 17.1467 168.736 16.6615 171.226 19.1016L171.471 18.1191C171.612 17.5517 172.019 17.1744 172.422 17.2383L176.614 17.9033C176.987 17.9625 177.219 18.445 177.134 18.9844C177.116 19.0994 177.082 19.2158 177.037 19.3193L175.182 23.5752L178.646 24.125C179.149 24.2048 179.465 24.8598 179.35 25.5898C179.307 25.8559 179.211 26.1059 179.072 26.3086L172.689 35.6572C172.494 35.9432 172.223 36.0885 171.967 36.0479L171.895 36.0361C171.504 35.9741 171.259 35.463 171.349 34.8984C171.362 34.8159 171.382 34.7345 171.41 34.6543L173.656 28.0527L170.074 27.4844C169.634 27.4143 169.36 26.8435 169.461 26.207L170.646 21.4336C170.085 20.5633 169.48 19.8525 168.5 19.5C167.049 18.9782 165.05 19.1747 164.5 20C164.295 21.0256 164.5 21.5 164.5 22C164.5 22.5 164.433 22.7445 165.077 26.9219C165.077 31.9218 165.17 34.8892 163.077 36.9219C160.875 39.0608 157.077 38.4219 157.077 38.4219C155.577 37.9219 154.245 36.7475 153.577 33.9219C153.053 31.7065 153.085 28.6856 153.077 25.9219C153.065 22.05 153.072 18.2797 153.075 16.3818C153.027 16.2642 153 16.1353 153 16V13.916C150.162 13.441 148 10.9719 148 8V6C147.447 6 147 5.55312 147 5C147 4.44688 147.447 4 148 4H150V1C150 0.446875 150.447 0 151 0C151.553 0 152 0.446875 152 1V4H156V1C156 0.446875 156.447 0 157 0ZM25.8164 13.4229C27.2935 13.4229 28.5865 13.7745 29.6943 14.4775C30.8093 15.1806 31.6751 16.1683 32.293 17.4395C32.918 18.7107 33.2305 20.1988 33.2305 21.9033C33.2305 23.5936 32.9179 25.0708 32.293 26.335C31.6751 27.599 30.8092 28.583 29.6943 29.2861C28.5865 29.9892 27.2935 30.3408 25.8164 30.3408C24.3392 30.3408 23.0428 29.9892 21.9277 29.2861C20.8198 28.583 19.9531 27.5992 19.3281 26.335C18.7103 25.0708 18.4014 23.5936 18.4014 21.9033C18.4014 20.1988 18.7102 18.7107 19.3281 17.4395C19.9531 16.1682 20.8198 15.1806 21.9277 14.4775C23.0427 13.7746 24.3393 13.4229 25.8164 13.4229ZM66.9355 13.4229C67.7877 13.4229 68.6291 13.5656 69.46 13.8496C70.2909 14.1337 71.0477 14.5952 71.7295 15.2344C72.4113 15.8665 72.9545 16.705 73.3594 17.749C73.7641 18.793 73.9668 20.0786 73.9668 21.6055V22.6709H62.085C62.1211 23.7594 62.3305 24.6936 62.7168 25.4727C63.15 26.3248 63.7506 26.9745 64.5176 27.4219C65.2846 27.8621 66.1759 28.082 67.1914 28.082C67.8518 28.082 68.4488 27.9903 68.9814 27.8057C69.5211 27.6139 69.9864 27.3295 70.377 26.9531C70.7675 26.5696 71.0692 26.0935 71.2822 25.5254L73.7109 26.207C73.4553 27.0309 73.0256 27.7559 72.4219 28.3809C71.8182 28.9987 71.0723 29.4811 70.1846 29.8291C69.2969 30.17 68.2993 30.3408 67.1914 30.3408C65.6148 30.3408 64.2547 29.9928 63.1113 29.2969C61.975 28.5938 61.0974 27.6135 60.4795 26.3564C59.8688 25.0923 59.5635 23.6223 59.5635 21.9463C59.5635 20.2703 59.8688 18.793 60.4795 17.5146C61.0974 16.2291 61.9568 15.2271 63.0576 14.5098C64.1656 13.7853 65.4583 13.4229 66.9355 13.4229ZM114.557 13.4229C116.034 13.4229 117.327 13.7745 118.435 14.4775C119.549 15.1806 120.415 16.1683 121.033 17.4395C121.658 18.7107 121.971 20.1988 121.971 21.9033C121.971 23.5936 121.658 25.0708 121.033 26.335C120.415 27.599 119.549 28.583 118.435 29.2861C117.327 29.9892 116.034 30.3408 114.557 30.3408C113.079 30.3408 111.783 29.9892 110.668 29.2861C109.56 28.583 108.693 27.5992 108.068 26.335C107.451 25.0708 107.142 23.5936 107.142 21.9033C107.142 20.1988 107.45 18.7107 108.068 17.4395C108.693 16.1682 109.56 15.1806 110.668 14.4775C111.783 13.7746 113.08 13.4229 114.557 13.4229ZM8.01465 8.18164C9.72609 8.18169 11.1254 8.49055 12.2119 9.1084C13.3056 9.71918 14.1151 10.5468 14.6406 11.5908C15.1662 12.6348 15.4287 13.7996 15.4287 15.085C15.4287 16.3704 15.1661 17.5388 14.6406 18.5898C14.1222 19.6409 13.3199 20.4795 12.2334 21.1045C11.1468 21.7224 9.75408 22.0312 8.05664 22.0312H3.28418V30H0.641602V8.18164H8.01465ZM41.4131 26.165H41.583L45.0771 13.6367H47.7617L51.2139 26.1221H51.3838L54.9209 13.6367H57.5635L52.5771 30H50.1055L46.5264 17.4287H46.2705L42.6914 30H40.2197L35.2334 13.6367H37.876L41.4131 26.165ZM85.3447 13.3916C85.6217 13.3987 85.8316 13.4086 85.9736 13.4229V15.9805C85.8884 15.9592 85.6929 15.9264 85.3877 15.8838C85.0895 15.8341 84.7731 15.8096 84.4395 15.8096C83.644 15.8096 82.9336 15.9768 82.3086 16.3105C81.6907 16.6373 81.2001 17.0914 80.8379 17.6738C80.4828 18.249 80.3057 18.9061 80.3057 19.6445V30H77.791V13.6367H80.2207V16.1084H80.3906C80.6889 15.2988 81.2286 14.641 82.0098 14.1367C82.791 13.6325 83.6722 13.3809 84.6523 13.3809C84.837 13.3809 85.0678 13.3845 85.3447 13.3916ZM95.6895 7.15918C96.3072 7.1592 96.8116 7.20918 97.2021 7.30859C97.5924 7.40794 97.8835 7.4998 98.0752 7.58496L97.3506 9.75879C97.2228 9.71619 97.0454 9.6625 96.8184 9.59863C96.5982 9.53472 96.3065 9.50293 95.9443 9.50293C95.1136 9.503 94.5138 9.71288 94.1445 10.1318C93.7824 10.5509 93.6006 11.1651 93.6006 11.9746V13.6367H97.2656V15.7666H93.6006V30H91.0869V15.7666H88.4443V13.6367H91.0869V11.3779C91.0869 10.4405 91.3068 9.65915 91.7471 9.03418C92.1874 8.40918 92.7598 7.94043 93.4629 7.62793C94.1659 7.31551 94.9083 7.15918 95.6895 7.15918ZM103.304 30H100.789V8.18164H103.304V30ZM130.153 26.165H130.323L133.817 13.6367H136.502L139.954 26.1221H140.124L143.661 13.6367H146.304L141.317 30H138.846L135.267 17.4287H135.011L131.432 30H128.96L123.974 13.6367H126.616L130.153 26.165ZM25.8164 15.6816C24.6942 15.6816 23.7703 15.9733 23.0459 16.5557C22.3217 17.138 21.7855 17.9013 21.4375 18.8457C21.0895 19.7903 20.915 20.8096 20.915 21.9033C20.915 22.997 21.0895 24.0127 21.4375 24.9502C21.7855 25.8877 22.3215 26.6444 23.0459 27.2197C23.7703 27.795 24.6942 28.082 25.8164 28.082C26.9383 28.082 27.8616 27.7949 28.5859 27.2197C29.3104 26.6444 29.8463 25.8877 30.1943 24.9502C30.5423 24.0127 30.7168 22.9971 30.7168 21.9033C30.7168 20.8096 30.5423 19.7903 30.1943 18.8457C29.8463 17.9013 29.3102 17.138 28.5859 16.5557C27.8616 15.9733 26.9384 15.6817 25.8164 15.6816ZM114.557 15.6816C113.434 15.6816 112.511 15.9733 111.786 16.5557C111.062 17.138 110.526 17.9013 110.178 18.8457C109.83 19.7903 109.655 20.8096 109.655 21.9033C109.655 22.997 109.83 24.0127 110.178 24.9502C110.526 25.8877 111.062 26.6444 111.786 27.2197C112.511 27.795 113.434 28.082 114.557 28.082C115.679 28.082 116.602 27.7949 117.326 27.2197C118.051 26.6444 118.587 25.8877 118.935 24.9502C119.283 24.0127 119.457 22.9971 119.457 21.9033C119.457 20.8096 119.283 19.7903 118.935 18.8457C118.587 17.9013 118.05 17.138 117.326 16.5557C116.602 15.9733 115.679 15.6817 114.557 15.6816ZM66.9355 15.6816C65.9341 15.6816 65.0675 15.9306 64.3359 16.4277C63.6117 16.9177 63.0537 17.5565 62.6631 18.3447C62.3284 19.0203 62.1387 19.7381 62.0908 20.4971H71.4102C71.4101 19.5738 71.2257 18.7498 70.8564 18.0254C70.4943 17.301 69.9754 16.7296 69.3008 16.3105C68.6332 15.8915 67.8446 15.6816 66.9355 15.6816ZM3.28418 19.6875H7.97168C9.14351 19.6875 10.0847 19.4849 10.7949 19.0801C11.505 18.6753 12.0203 18.1283 12.3398 17.4395C12.6665 16.7435 12.8291 15.9584 12.8291 15.085C12.8291 14.2115 12.6665 13.4301 12.3398 12.7412C12.0202 12.0523 11.5015 11.5127 10.7842 11.1221C10.0669 10.7243 9.11479 10.5254 7.92871 10.5254H3.28418V19.6875Z" fill="currentColor"/>
</svg>
