<svg width="33" height="39" viewBox="0 0 33 39" fill="none" xmlns="http://www.w3.org/2000/svg">
<path d="M10 0C10.5531 0 11 0.446875 11 1V4H13C13.5531 4 14 4.44688 14 5C14 5.55312 13.5531 6 13 6V8C13 10.9719 10.8375 13.441 8 13.916V15.125H8.07715V30.4219C8.07716 34.4217 9.17234 36.1 10.0771 36.4219C10.5771 36.4219 14.0771 37.4217 15.0771 35.4219C16.6896 32.197 16.4096 31.4079 16.0771 27.4219C15.4999 20.5001 15 20.5 16.5 18.5C18.3044 17.1467 21.7356 16.6615 24.2256 19.1016L24.4707 18.1191C24.6118 17.5517 25.019 17.1744 25.4219 17.2383L29.6143 17.9033C29.9872 17.9625 30.2192 18.445 30.1338 18.9844C30.1155 19.0994 30.0816 19.2158 30.0371 19.3193L28.1816 23.5752L31.6465 24.125C32.1488 24.2048 32.4654 24.8598 32.3496 25.5898C32.3074 25.8559 32.2115 26.1059 32.0723 26.3086L25.6895 35.6572C25.4937 35.9432 25.2229 36.0885 24.9668 36.0479L24.8945 36.0361C24.5041 35.9741 24.2591 35.463 24.3486 34.8984C24.3617 34.8159 24.3822 34.7345 24.4102 34.6543L26.6562 28.0527L23.0742 27.4844C22.6342 27.4143 22.36 26.8435 22.4609 26.207L23.6465 21.4336C23.0845 20.5633 22.4799 19.8525 21.5 19.5C20.0495 18.9782 18.0502 19.1747 17.5 20C17.2949 21.0256 17.5 21.5 17.5 22C17.5 22.5 17.4328 22.7445 18.0771 26.9219C18.0771 31.9218 18.1699 34.8892 16.0771 36.9219C13.8749 39.0608 10.0771 38.4219 10.0771 38.4219C8.57716 37.9219 7.2454 36.7475 6.57715 33.9219C6.05322 31.7065 6.0855 28.6856 6.07715 25.9219C6.06545 22.05 6.07157 18.2797 6.0752 16.3818C6.02671 16.2642 6 16.1353 6 16V13.916C3.1625 13.441 1 10.9719 1 8V6C0.446875 6 0 5.55312 0 5C0 4.44688 0.446875 4 1 4H3V1C3 0.446875 3.44688 0 4 0C4.55312 0 5 0.446875 5 1V4H9V1C9 0.446875 9.44687 0 10 0Z" fill="inherit"/>
</svg>
