<svg width="33" height="39" viewBox="0 0 33 39" fill="none" xmlns="http://www.w3.org/2000/svg">
<path d="M10 0C10.5531 0 11 0.446875 11 1V4H13C13.5531 4 14 4.44687 14 5C14 5.55313 13.5531 6 13 6V8C13 10.9719 10.8375 13.441 8 13.916V15.124H8.07715V30.4219C8.07718 34.4209 9.17244 36.0986 10.0771 36.4209C10.5784 36.4214 14.0772 37.4211 15.0771 35.4219L15.3574 34.8447C16.6542 32.086 16.3888 31.1589 16.0771 27.4219L15.9707 26.2031C15.4456 20.4928 15.0939 20.3748 16.5 18.5L16.6934 18.3623C18.5413 17.1163 21.822 16.7465 24.2256 19.1025L24.4707 18.1191C24.6118 17.5517 25.019 17.1744 25.4219 17.2383L29.6143 17.9033C29.9872 17.9625 30.2192 18.445 30.1338 18.9844C30.1155 19.0994 30.0816 19.2158 30.0371 19.3193L28.1816 23.5752L31.6465 24.125C32.1488 24.2048 32.4654 24.8598 32.3496 25.5898C32.3074 25.8559 32.2115 26.1059 32.0723 26.3086L25.6895 35.6572C25.4937 35.9432 25.2229 36.0885 24.9668 36.0479L24.8945 36.0361C24.5041 35.9741 24.2591 35.463 24.3486 34.8984C24.3617 34.8159 24.3822 34.7345 24.4102 34.6543L26.6562 28.0527L23.0742 27.4844C22.6342 27.4143 22.36 26.8435 22.4609 26.207L23.6465 21.4336C23.0846 20.5633 22.4798 19.8525 21.5 19.5C20.0495 18.9782 18.0502 19.1747 17.5 20C17.2949 21.0255 17.5 21.5 17.5 22C17.5 22.4999 17.4329 22.745 18.0771 26.9219C18.0772 31.9216 18.1699 34.8892 16.0771 36.9219C13.8749 39.0608 10.0771 38.4219 10.0771 38.4219L9.79785 38.3193C8.41329 37.7679 7.20359 36.5706 6.57715 33.9219C6.05323 31.7066 6.0855 28.6855 6.07715 25.9219C6.06545 22.0493 6.07053 18.2784 6.07422 16.3809C6.02604 16.2636 6 16.1348 6 16V13.916C3.1625 13.441 1 10.9719 1 8V6C0.446875 6 0 5.55313 0 5C0 4.44687 0.446875 4 1 4H3V1C3 0.446875 3.44687 0 4 0C4.55313 0 5 0.446875 5 1V4H9V1C9 0.446875 9.44687 0 10 0ZM17.0742 27.3389C17.0752 27.3509 17.0752 27.363 17.0762 27.375C17.0761 27.2503 17.0762 27.124 17.0762 26.9961C17.0479 26.8126 17.0226 26.6365 16.9971 26.4678C17.0219 26.7454 17.0489 27.0356 17.0742 27.3389ZM7.07324 16.9961C7.06983 19.0297 7.06665 22.4426 7.07715 25.918C7.07741 26.0036 7.07791 26.0901 7.07812 26.1758C7.07812 25.2944 7.07715 24.3959 7.07715 23.4219C7.07715 20.8102 7.07719 18.5352 7.07715 16.9961C7.07585 16.9962 7.07454 16.996 7.07324 16.9961Z" fill="white"/>
</svg>
